# Blender 4.2.3 LTS
# www.blender.org
mtllib lathe.mtl
o Hull
v -0.000000 -0.125000 1.500000
v -0.000000 0.000000 1.500000
v -0.000000 -0.125000 0.000000
v -0.000000 0.000000 0.000000
v 1.000000 -0.125000 1.500000
v 1.000000 0.000000 1.500000
v 1.000000 -0.125000 0.000000
v 1.000000 0.000000 0.000000
v 0.250000 0.000000 1.500000
v 0.250000 0.500000 1.500000
v 0.250000 0.000000 0.875000
v 0.250000 0.500000 0.875000
v 1.000000 0.000000 1.500000
v 1.000000 0.500000 1.500000
v 1.000000 0.000000 0.875000
v 1.000000 0.500000 0.875000
v 0.250000 -0.000000 4.000000
v 0.250000 0.500000 4.000000
v 0.250000 0.000000 3.000000
v 0.250000 0.500000 3.000000
v 1.000000 -0.000000 3.999999
v 1.000000 0.500000 3.999999
v 1.000000 0.000000 3.000000
v 1.000000 0.500000 3.000000
v 0.000000 -1.000000 4.000000
v 0.000000 -0.750000 4.000000
v -0.000000 -1.000000 0.000000
v -0.000000 -0.750000 0.000000
v 1.000000 -1.000000 3.999999
v 1.000000 -0.750000 3.999999
v 1.000000 -1.000000 0.000000
v 1.000000 -0.750000 0.000000
v 0.062500 -0.750000 3.937500
v 0.062500 -0.125000 3.937500
v 0.062500 -0.750000 3.062500
v 0.062500 -0.125000 3.062500
v 0.937500 -0.750000 3.937500
v 0.937500 -0.125000 3.937500
v 0.937500 -0.750000 3.062500
v 0.937500 -0.125000 3.062500
v 0.375000 -0.125000 3.062500
v 0.375000 -0.062500 3.062500
v 0.375000 -0.125000 1.437500
v 0.375000 -0.062500 1.437500
v 0.437500 -0.125000 3.062500
v 0.437500 -0.062500 3.062500
v 0.437500 -0.125000 1.437500
v 0.437500 -0.062500 1.437500
v 0.437500 -0.312500 3.062500
v 0.437500 0.000000 3.062500
v 0.437500 -0.312500 1.437500
v 0.437500 0.000000 1.437500
v 0.500000 -0.312500 3.062500
v 0.500000 0.000000 3.062500
v 0.500000 -0.312500 1.437500
v 0.500000 0.000000 1.437500
v -0.000000 -0.750000 1.500000
v -0.000000 -0.125000 1.500000
v -0.000000 -0.750000 1.312500
v -0.000000 -0.125000 1.312500
v 0.187500 -0.750000 1.500000
v 0.187500 -0.125000 1.500000
v 0.187500 -0.750000 1.312500
v 0.187500 -0.125000 1.312500
v 0.062500 -0.750000 1.437500
v 0.062500 -0.125000 1.437500
v 0.062500 -0.750000 0.062500
v 0.062500 -0.125000 0.062500
v 0.937500 -0.750000 1.437500
v 0.937500 -0.125000 1.437500
v 0.937500 -0.750000 0.062500
v 0.937500 -0.125000 0.062500
v 0.000000 -0.125000 4.000000
v 0.000000 -0.000000 4.000000
v 0.000000 -0.125000 3.000000
v 0.000000 0.000000 3.000000
v 1.000000 -0.125000 4.000000
v 1.000000 -0.000000 4.000000
v 1.000000 -0.125000 3.000000
v 1.000000 0.000000 3.000000
v 1.000000 0.000000 0.000000
v 1.000000 0.625000 0.000000
v 1.000000 0.000000 0.875000
v 1.000000 0.625000 0.875000
v 0.125000 0.000000 0.000000
v 0.125000 0.625000 0.000000
v 0.125000 0.000000 0.875000
v 0.125000 0.625000 0.875000
v -0.000000 -0.750000 0.187500
v -0.000000 -0.125000 0.187500
v -0.000000 -0.750000 0.000000
v -0.000000 -0.125000 0.000000
v 0.187500 -0.750000 0.187500
v 0.187500 -0.125000 0.187500
v 0.187500 -0.750000 0.000000
v 0.187500 -0.125000 0.000000
v 0.812500 -0.750000 1.500000
v 0.812500 -0.125000 1.500000
v 0.812500 -0.750000 1.312500
v 0.812500 -0.125000 1.312500
v 1.000000 -0.750000 1.500000
v 1.000000 -0.125000 1.500000
v 1.000000 -0.750000 1.312500
v 1.000000 -0.125000 1.312500
v 0.812500 -0.750000 0.187500
v 0.812500 -0.125000 0.187500
v 0.812500 -0.750000 0.000000
v 0.812500 -0.125000 0.000000
v 1.000000 -0.750000 0.187500
v 1.000000 -0.125000 0.187500
v 1.000000 -0.750000 0.000000
v 1.000000 -0.125000 0.000000
v 0.000000 -0.750000 3.187500
v 0.000000 -0.125000 3.187500
v 0.000000 -0.750000 3.000000
v 0.000000 -0.125000 3.000000
v 0.187500 -0.750000 3.187500
v 0.187500 -0.125000 3.187500
v 0.187500 -0.750000 3.000000
v 0.187500 -0.125000 3.000000
v 0.812500 -0.750000 3.187500
v 0.812500 -0.125000 3.187500
v 0.812500 -0.750000 3.000000
v 0.812500 -0.125000 3.000000
v 1.000000 -0.750000 3.187500
v 1.000000 -0.125000 3.187500
v 1.000000 -0.750000 3.000000
v 1.000000 -0.125000 3.000000
v 0.000000 -0.750000 4.000000
v 0.000000 -0.125000 4.000000
v 0.000000 -0.750000 3.812500
v 0.000000 -0.125000 3.812500
v 0.187500 -0.750000 4.000000
v 0.187500 -0.125000 4.000000
v 0.187500 -0.750000 3.812500
v 0.187500 -0.125000 3.812500
v 0.812500 -0.750000 4.000000
v 0.812500 -0.125000 4.000000
v 0.812500 -0.750000 3.812500
v 0.812500 -0.125000 3.812500
v 1.000000 -0.750000 4.000000
v 1.000000 -0.125000 4.000000
v 1.000000 -0.750000 3.812500
v 1.000000 -0.125000 3.812500
v 0.375000 -0.250000 3.062500
v 0.375000 -0.187500 3.062500
v 0.375000 -0.250000 1.437500
v 0.375000 -0.187500 1.437500
v 0.437500 -0.250000 3.062500
v 0.437500 -0.187500 3.062500
v 0.437500 -0.250000 1.437500
v 0.437500 -0.187500 1.437500
v 0.875000 -0.125000 1.437500
v 0.875000 -0.062500 1.437500
v 0.875000 -0.125000 3.062500
v 0.875000 -0.062500 3.062500
v 0.812500 -0.125000 1.437500
v 0.812500 -0.062500 1.437500
v 0.812500 -0.125000 3.062500
v 0.812500 -0.062500 3.062500
v 0.875000 -0.250000 1.437500
v 0.875000 -0.187500 1.437500
v 0.875000 -0.250000 3.062500
v 0.875000 -0.187500 3.062500
v 0.812500 -0.250000 1.437500
v 0.812500 -0.187500 1.437500
v 0.812500 -0.250000 3.062500
v 0.812500 -0.187500 3.062500
v 0.750000 -0.312500 3.062500
v 0.750000 0.000000 3.062500
v 0.750000 -0.312500 1.437500
v 0.750000 0.000000 1.437500
v 0.812500 -0.312500 3.062500
v 0.812500 0.000000 3.062500
v 0.812500 -0.312500 1.437500
v 0.812500 0.000000 1.437500
v 0.687500 -0.687500 3.937500
v 0.687500 -0.312500 3.937500
v 0.687500 -0.687500 4.000000
v 0.687500 -0.312500 4.000000
v 0.312500 -0.687500 3.937500
v 0.312500 -0.312500 3.937500
v 0.312500 -0.687500 4.000000
v 0.312500 -0.312500 4.000000
v 0.312500 -0.687500 0.062500
v 0.312500 -0.312500 0.062500
v 0.312500 -0.687500 0.000000
v 0.312500 -0.312500 0.000000
v 0.687500 -0.687500 0.062500
v 0.687500 -0.312500 0.062500
v 0.687500 -0.687500 0.000000
v 0.687500 -0.312500 0.000000
vn -1.0000 -0.0000 -0.0000
vn -0.0000 -0.0000 -1.0000
vn 1.0000 -0.0000 -0.0000
vn -0.0000 -0.0000 1.0000
vn -0.0000 -1.0000 -0.0000
vn -0.0000 1.0000 -0.0000
vt 0.312500 0.656250
vt 0.500000 0.687500
vt 0.312500 0.687500
vt 0.437500 0.687500
vt 0.500000 0.656250
vt 0.437500 0.656250
vt -0.000000 0.437500
vt 0.187500 0.687500
vt 0.000000 0.687500
vt 0.984375 0.843750
vt 0.906250 0.718750
vt 0.984375 0.718750
vt 0.906250 0.843750
vt 0.812500 0.718750
vt 0.796875 1.000000
vt 0.890625 0.843750
vt 0.890625 1.000000
vt 1.000000 0.593750
vt 0.875000 0.468750
vt 1.000000 0.468750
vt 0.812500 0.593750
vt 0.906250 0.593750
vt 0.750000 0.593750
vt 0.875000 0.406250
vt 0.875000 0.593750
vt 0.500000 1.000000
vt 0.000000 0.937500
vt 0.500000 0.937500
vt 0.437500 0.500000
vt 0.312500 0.437500
vt 0.437500 0.437500
vt 0.421875 0.656250
vt 0.312500 0.500000
vt 0.421875 0.500000
vt 0.000000 0.343750
vt 0.203125 0.359375
vt 0.000000 0.359375
vt 0.203125 0.343750
vt 0.203125 0.437500
vt 0.203125 0.375000
vt 0.000000 0.421875
vt 0.203125 0.421875
vt 0.476562 0.500000
vt 0.500000 0.500000
vt 0.484375 0.656250
vt 0.484375 0.500000
vt 0.187500 0.437500
vt 0.687500 0.843750
vt 0.796875 0.843750
vt 1.000000 1.000000
vt 1.000000 0.843750
vt 0.796875 0.625000
vt 0.687500 0.625000
vt -0.000000 0.375000
vt 0.953125 0.703125
vt 0.945312 0.609375
vt 0.953125 0.609375
vt 0.906250 0.609375
vt 0.914062 0.703125
vt 0.914062 0.609375
vt 0.906250 0.625000
vt 0.953125 0.625000
vt 0.953125 0.687500
vt 0.906250 0.703125
vt 0.906250 0.687500
vt 1.000000 0.703125
vt 0.992188 0.609375
vt 1.000000 0.609375
vt 0.960938 0.703125
vt 0.960938 0.609375
vt 1.000000 0.625000
vt 1.000000 0.687500
vt 0.812500 0.843750
vt 0.750000 0.406250
vt -0.000000 1.000000
vt 0.000082 0.999918
vt 0.476562 0.656250
vt 0.687500 1.000000
vt 0.945312 0.703125
vt 0.992188 0.703125
s 0
usemtl Body.001
f 2/1/1 3/2/1 1/3/1
f 4/1/2 7/4/2 3/3/2
f 8/2/3 5/1/3 7/5/3
f 6/4/4 1/1/4 5/6/4
f 7/7/5 1/8/5 3/9/5
f 4/7/6 6/8/6 8/9/6
f 10/10/1 11/11/1 9/12/1
f 16/10/3 13/11/3 15/12/3
f 14/13/4 9/14/4 13/11/4
f 12/15/6 14/16/6 16/17/6
f 18/18/1 19/19/1 17/20/1
f 20/13/2 23/14/2 19/11/2
f 24/18/3 21/19/3 23/20/3
f 22/11/4 17/21/4 21/22/4
f 20/23/6 22/24/6 24/25/6
f 26/26/1 27/27/1 25/28/1
f 28/29/2 31/30/2 27/31/2
f 32/26/3 29/27/3 31/28/3
f 30/29/4 25/30/4 29/31/4
f 31/9/5 25/28/5 27/27/5
f 28/9/6 30/28/6 32/27/6
f 34/32/1 35/33/1 33/34/1
f 36/32/2 39/33/2 35/34/2
f 40/32/3 37/33/3 39/34/3
f 38/32/4 33/33/4 37/34/4
f 42/35/1 43/36/1 41/37/1
f 47/36/5 41/35/5 43/38/5
f 44/36/6 46/35/6 48/38/6
f 50/39/1 51/37/1 49/36/1
f 56/39/3 53/37/3 55/36/3
f 55/40/5 49/37/5 51/36/5
f 52/39/6 54/41/6 56/42/6
f 58/5/1 59/43/1 57/44/1
f 60/5/2 63/43/2 59/44/2
f 64/5/3 61/43/3 63/44/3
f 62/5/4 57/43/4 61/44/4
f 66/45/1 67/33/1 65/46/1
f 68/32/2 71/33/2 67/34/2
f 72/45/3 69/33/3 71/46/3
f 70/32/4 65/33/4 69/34/4
f 74/4/1 75/1/1 73/6/1
f 76/1/2 79/4/2 75/3/2
f 80/4/3 77/1/3 79/6/3
f 78/4/4 73/1/4 77/6/4
f 79/30/5 73/8/5 75/47/5
f 76/47/6 78/3/6 80/8/6
f 82/15/3 83/48/3 81/49/3
f 84/15/4 87/48/4 83/49/4
f 88/50/1 85/16/1 87/51/1
f 86/15/2 81/48/2 85/49/2
f 84/52/6 86/48/6 88/53/6
f 90/5/1 91/43/1 89/44/1
f 92/5/2 95/43/2 91/44/2
f 96/5/3 93/43/3 95/44/3
f 94/5/4 89/43/4 93/44/4
f 98/5/1 99/43/1 97/44/1
f 100/5/2 103/43/2 99/44/2
f 104/5/3 101/43/3 103/44/3
f 102/5/4 97/43/4 101/44/4
f 106/5/1 107/43/1 105/44/1
f 108/5/2 111/43/2 107/44/2
f 112/5/3 109/43/3 111/44/3
f 110/5/4 105/43/4 109/44/4
f 114/5/1 115/43/1 113/44/1
f 116/5/2 119/43/2 115/44/2
f 120/5/3 117/43/3 119/44/3
f 118/5/4 113/43/4 117/44/4
f 122/5/1 123/43/1 121/44/1
f 124/5/2 127/43/2 123/44/2
f 128/5/3 125/43/3 127/44/3
f 126/5/4 121/43/4 125/44/4
f 130/5/1 131/43/1 129/44/1
f 132/5/2 135/43/2 131/44/2
f 136/5/3 133/43/3 135/44/3
f 134/5/4 129/43/4 133/44/4
f 138/5/1 139/43/1 137/44/1
f 140/5/2 143/43/2 139/44/2
f 144/5/3 141/43/3 143/44/3
f 142/5/4 137/43/4 141/44/4
f 146/35/1 147/36/1 145/37/1
f 151/36/5 145/35/5 147/38/5
f 148/36/6 150/35/6 152/38/6
f 154/35/3 155/36/3 153/37/3
f 159/36/5 153/35/5 155/38/5
f 156/36/6 158/35/6 160/38/6
f 162/35/3 163/36/3 161/37/3
f 167/36/5 161/35/5 163/38/5
f 164/36/6 166/35/6 168/38/6
f 170/39/1 171/37/1 169/36/1
f 176/39/3 173/37/3 175/36/3
f 171/36/5 173/54/5 169/37/5
f 172/39/6 174/41/6 176/42/6
f 178/55/3 179/56/3 177/57/3
f 180/55/4 183/58/4 179/57/4
f 184/59/1 181/58/1 183/60/1
f 183/61/5 177/57/5 179/62/5
f 180/63/6 182/64/6 184/65/6
f 186/66/1 187/67/1 185/68/1
f 188/66/2 191/57/2 187/68/2
f 192/69/3 189/57/3 191/70/3
f 191/62/5 185/68/5 187/71/5
f 188/72/6 190/55/6 192/63/6
f 2/1/1 4/5/1 3/2/1
f 4/1/2 8/6/2 7/4/2
f 8/2/3 6/3/3 5/1/3
f 6/4/4 2/3/4 1/1/4
f 7/7/5 5/47/5 1/8/5
f 4/7/6 2/47/6 6/8/6
f 10/10/1 12/13/1 11/11/1
f 16/10/3 14/13/3 13/11/3
f 14/13/4 10/73/4 9/14/4
f 12/15/6 10/49/6 14/16/6
f 18/18/1 20/25/1 19/19/1
f 20/13/2 24/73/2 23/14/2
f 24/18/3 22/25/3 21/19/3
f 22/11/4 18/14/4 17/21/4
f 20/23/6 18/74/6 22/24/6
f 26/26/1 28/75/1 27/27/1
f 28/29/2 32/33/2 31/30/2
f 32/26/3 30/76/3 29/27/3
f 30/29/4 26/33/4 25/30/4
f 31/9/5 29/2/5 25/28/5
f 28/9/6 26/2/6 30/28/6
f 34/32/1 36/1/1 35/33/1
f 36/32/2 40/1/2 39/33/2
f 40/32/3 38/1/3 37/33/3
f 38/32/4 34/1/4 33/33/4
f 42/35/1 44/38/1 43/36/1
f 47/36/5 45/37/5 41/35/5
f 44/36/6 42/37/6 46/35/6
f 50/39/1 52/7/1 51/37/1
f 56/39/3 54/7/3 53/37/3
f 55/40/5 53/54/5 49/37/5
f 52/39/6 50/7/6 54/41/6
f 58/5/1 60/77/1 59/43/1
f 60/5/2 64/77/2 63/43/2
f 64/5/3 62/77/3 61/43/3
f 62/5/4 58/77/4 57/43/4
f 66/45/1 68/1/1 67/33/1
f 68/32/2 72/1/2 71/33/2
f 72/45/3 70/1/3 69/33/3
f 70/32/4 66/1/4 65/33/4
f 74/4/1 76/3/1 75/1/1
f 76/1/2 80/6/2 79/4/2
f 80/4/3 78/3/3 77/1/3
f 78/4/4 74/3/4 73/1/4
f 79/30/5 77/3/5 73/8/5
f 76/47/6 74/30/6 78/3/6
f 82/15/3 84/78/3 83/48/3
f 84/15/4 88/78/4 87/48/4
f 88/50/1 86/17/1 85/16/1
f 86/15/2 82/78/2 81/48/2
f 84/52/6 82/49/6 86/48/6
f 90/5/1 92/77/1 91/43/1
f 92/5/2 96/77/2 95/43/2
f 96/5/3 94/77/3 93/43/3
f 94/5/4 90/77/4 89/43/4
f 98/5/1 100/77/1 99/43/1
f 100/5/2 104/77/2 103/43/2
f 104/5/3 102/77/3 101/43/3
f 102/5/4 98/77/4 97/43/4
f 106/5/1 108/77/1 107/43/1
f 108/5/2 112/77/2 111/43/2
f 112/5/3 110/77/3 109/43/3
f 110/5/4 106/77/4 105/43/4
f 114/5/1 116/77/1 115/43/1
f 116/5/2 120/77/2 119/43/2
f 120/5/3 118/77/3 117/43/3
f 118/5/4 114/77/4 113/43/4
f 122/5/1 124/77/1 123/43/1
f 124/5/2 128/77/2 127/43/2
f 128/5/3 126/77/3 125/43/3
f 126/5/4 122/77/4 121/43/4
f 130/5/1 132/77/1 131/43/1
f 132/5/2 136/77/2 135/43/2
f 136/5/3 134/77/3 133/43/3
f 134/5/4 130/77/4 129/43/4
f 138/5/1 140/77/1 139/43/1
f 140/5/2 144/77/2 143/43/2
f 144/5/3 142/77/3 141/43/3
f 142/5/4 138/77/4 137/43/4
f 146/35/1 148/38/1 147/36/1
f 151/36/5 149/37/5 145/35/5
f 148/36/6 146/37/6 150/35/6
f 154/35/3 156/38/3 155/36/3
f 159/36/5 157/37/5 153/35/5
f 156/36/6 154/37/6 158/35/6
f 162/35/3 164/38/3 163/36/3
f 167/36/5 165/37/5 161/35/5
f 164/36/6 162/37/6 166/35/6
f 170/39/1 172/7/1 171/37/1
f 176/39/3 174/7/3 173/37/3
f 171/36/5 175/40/5 173/54/5
f 172/39/6 170/7/6 174/41/6
f 178/55/3 180/79/3 179/56/3
f 180/55/4 184/64/4 183/58/4
f 184/59/1 182/64/1 181/58/1
f 183/61/5 181/58/5 177/57/5
f 180/63/6 178/55/6 182/64/6
f 186/66/1 188/80/1 187/67/1
f 188/66/2 192/55/2 191/57/2
f 192/69/3 190/55/3 189/57/3
f 191/62/5 189/57/5 185/68/5
f 188/72/6 186/66/6 190/55/6
o Rod
v -0.022423 0.054134 1.500000
v -0.022423 0.054134 -0.000000
v -0.054134 0.022423 1.500000
v -0.054134 0.022423 -0.000000
v -0.054134 -0.022423 1.500000
v -0.054134 -0.022423 0.000000
v -0.022423 -0.054134 1.500000
v -0.022423 -0.054134 0.000000
v 0.022423 -0.054133 1.500000
v 0.022423 -0.054134 0.000000
v 0.054134 -0.022423 1.500000
v 0.054133 -0.022423 0.000000
v 0.054134 0.022423 1.500000
v 0.054133 0.022423 -0.000000
v 0.022423 0.054134 1.500000
v 0.022423 0.054134 -0.000000
vn -0.7071 0.7071 -0.0000
vn -1.0000 -0.0000 -0.0000
vn -0.7071 -0.7071 -0.0000
vn -0.0000 -1.0000 -0.0000
vn 0.7071 -0.7071 -0.0000
vn 1.0000 -0.0000 -0.0000
vn -0.0000 -0.0000 -1.0000
vn 0.7071 0.7071 -0.0000
vn -0.0000 1.0000 -0.0000
vn -0.0000 -0.0000 1.0000
s 0
usemtl None.001
f 194//7 195//7 193//7
f 196//8 197//8 195//8
f 198//9 199//9 197//9
f 200//10 201//10 199//10
f 202//11 203//11 201//11
f 204//12 205//12 203//12
f 206//13 202//13 198//13
f 206//14 207//14 205//14
f 208//15 193//15 207//15
f 205//16 207//16 199//16
f 207//16 193//16 195//16
f 195//16 197//16 207//16
f 197//16 199//16 207//16
f 199//16 201//16 203//16
f 203//16 205//16 199//16
f 194//7 196//7 195//7
f 196//8 198//8 197//8
f 198//9 200//9 199//9
f 200//10 202//10 201//10
f 202//11 204//11 203//11
f 204//12 206//12 205//12
f 198//13 196//13 194//13
f 194//13 208//13 206//13
f 206//13 204//13 202//13
f 202//13 200//13 198//13
f 198//13 194//13 206//13
f 206//14 208//14 207//14
f 208//15 194//15 193//15
o Shaft
v -0.017938 0.043307 1.500000
v -0.017938 0.043307 -0.000000
v -0.043307 0.017938 1.500000
v -0.043307 0.017938 -0.000000
v -0.043307 -0.017938 1.500000
v -0.043307 -0.017938 0.000000
v -0.017938 -0.043307 1.500000
v -0.017938 -0.043307 0.000000
v 0.017938 -0.043307 1.500000
v 0.017938 -0.043307 0.000000
v 0.043307 -0.017938 1.500000
v 0.043307 -0.017938 0.000000
v 0.043307 0.017938 1.500000
v 0.043307 0.017938 -0.000000
v 0.017938 0.043307 1.500000
v 0.017938 0.043307 -0.000000
vn -0.7071 0.7071 -0.0000
vn -1.0000 -0.0000 -0.0000
vn -0.7071 -0.7071 -0.0000
vn -0.0000 -1.0000 -0.0000
vn 0.7071 -0.7071 -0.0000
vn 1.0000 -0.0000 -0.0000
vn -0.0000 -0.0000 -1.0000
vn 0.7071 0.7071 -0.0000
vn -0.0000 1.0000 -0.0000
vn -0.0000 -0.0000 1.0000
vt 0.000000 0.359375
vt 0.203125 0.343750
vt 0.203125 0.359375
vt 0.000000 0.000000
vt -0.000000 0.343750
s 0
usemtl None_lathe.png.001
f 210/81/17 211/82/17 209/83/17
f 212/81/18 213/82/18 211/83/18
f 214/81/19 215/82/19 213/83/19
f 216/81/20 217/82/20 215/83/20
f 218/81/21 219/82/21 217/83/21
f 220/81/22 221/82/22 219/83/22
f 216/84/23 214/84/23 222/84/23
f 222/81/24 223/82/24 221/83/24
f 224/81/25 209/82/25 223/83/25
f 215/84/26 219/84/26 223/84/26
f 210/81/17 212/85/17 211/82/17
f 212/81/18 214/85/18 213/82/18
f 214/81/19 216/85/19 215/82/19
f 216/81/20 218/85/20 217/82/20
f 218/81/21 220/85/21 219/82/21
f 220/81/22 222/85/22 221/82/22
f 214/84/23 212/84/23 210/84/23
f 210/84/23 224/84/23 214/84/23
f 224/84/23 222/84/23 214/84/23
f 222/84/23 220/84/23 218/84/23
f 218/84/23 216/84/23 222/84/23
f 222/81/24 224/85/24 223/82/24
f 224/81/25 210/85/25 209/82/25
f 223/84/26 209/84/26 211/84/26
f 211/84/26 213/84/26 215/84/26
f 215/84/26 217/84/26 219/84/26
f 219/84/26 221/84/26 223/84/26
f 223/84/26 211/84/26 215/84/26
o Tool
v -0.626045 -0.003387 0.002106
v -0.626045 0.309113 0.002106
v -0.626045 -0.003387 0.377106
v -0.626045 0.309113 0.377106
v -0.188545 0.371613 0.002106
v -0.188545 0.621613 0.002106
v -0.188545 0.371613 0.377106
v -0.188545 0.621613 0.377106
v -0.438545 0.371613 0.002106
v -0.438545 0.621613 0.002106
v -0.438545 0.371613 0.377106
v -0.438545 0.621613 0.377106
v -0.251045 0.184113 0.002106
v -0.251045 0.309113 0.002106
v -0.251045 0.184113 0.377106
v -0.251045 0.309113 0.377106
v -0.376045 0.184113 0.002106
v -0.376045 0.309113 0.002106
v -0.376045 0.184113 0.377106
v -0.376045 0.309113 0.377106
v -0.001045 -0.003387 0.002106
v -0.001045 0.309113 0.002106
v -0.001045 -0.003387 0.377106
v -0.001045 0.309113 0.377106
v -0.126045 -0.003387 0.002106
v -0.126045 0.309113 0.002106
v -0.126045 -0.003387 0.377106
v -0.126045 0.309113 0.377106
v -0.001045 0.309113 0.002106
v -0.001045 0.371613 0.002106
v -0.001045 0.309113 0.377106
v -0.001045 0.371613 0.377106
v -0.626045 0.309113 0.002106
v -0.626045 0.371613 0.002106
v -0.626045 0.309113 0.377106
v -0.626045 0.371613 0.377106
v -0.501045 -0.003387 0.002106
v -0.501045 0.309113 0.002106
v -0.501045 -0.003387 0.377106
v -0.501045 0.309113 0.377106
v -0.626045 -0.003387 0.002106
v -0.626045 0.309113 0.002106
v -0.626045 -0.003387 0.377106
v -0.626045 0.309113 0.377106
vn -1.0000 -0.0000 -0.0000
vn 1.0000 -0.0000 -0.0000
vn -0.0000 -0.0000 1.0000
vn -0.0000 -0.0000 -1.0000
vn -0.0000 1.0000 -0.0000
vn -0.0000 -1.0000 -0.0000
vt 0.609375 0.984375
vt 0.562500 0.906250
vt 0.609375 0.906250
vt 0.562500 0.843750
vt 0.843750 0.734375
vt 0.875000 0.796875
vt 0.843750 0.796875
vt 0.609375 0.843750
vt 0.875000 0.734375
vt 1.000000 0.750000
vt 0.984375 0.843750
vt 0.984375 0.750000
vt 0.984375 0.812500
vt 1.000000 0.843750
vt 1.000000 0.812500
vt 1.000000 0.828125
vt 0.984375 0.828125
vt 0.562500 0.984375
vt 0.609375 1.000000
vt 0.562500 1.000000
vt 0.687500 1.000000
vt 0.687500 0.921875
vt 0.687500 0.906250
vt 0.687500 0.984375
vt 0.609375 0.921875
s 0
usemtl None_lathe.png.001
f 228/86/27 225/87/27 227/88/27
f 230/89/28 231/88/28 229/87/28
f 232/90/29 235/91/29 231/92/29
f 236/88/27 233/89/27 235/93/27
f 234/91/30 229/90/30 233/94/30
f 232/87/31 234/93/31 236/88/31
f 238/95/28 239/96/28 237/97/28
f 240/98/29 243/99/29 239/96/29
f 244/96/27 241/95/27 243/99/27
f 242/99/30 237/98/30 241/100/30
f 243/95/32 237/96/32 239/97/32
f 246/86/28 247/87/28 245/88/28
f 248/97/29 251/101/29 247/102/29
f 250/101/30 245/97/30 249/95/30
f 251/95/32 245/96/32 247/97/32
f 254/103/28 255/104/28 253/105/28
f 256/86/29 259/106/29 255/104/29
f 260/104/27 257/103/27 259/86/27
f 258/107/30 253/88/30 257/108/30
f 259/108/32 253/104/32 255/88/32
f 256/104/31 258/108/31 260/106/31
f 264/97/29 267/101/29 263/102/29
f 266/101/30 261/97/30 265/95/30
f 267/95/32 261/96/32 263/97/32
f 228/86/27 226/103/27 225/87/27
f 230/89/28 232/93/28 231/88/28
f 232/90/29 236/94/29 235/91/29
f 236/88/27 234/87/27 233/89/27
f 234/91/30 230/92/30 229/90/30
f 232/87/31 230/89/31 234/93/31
f 238/95/28 240/99/28 239/96/28
f 240/98/29 244/100/29 243/99/29
f 244/96/27 242/97/27 241/95/27
f 242/99/30 238/96/30 237/98/30
f 243/95/32 241/99/32 237/96/32
f 246/86/28 248/103/28 247/87/28
f 248/97/29 252/95/29 251/101/29
f 250/101/30 246/102/30 245/97/30
f 251/95/32 249/99/32 245/96/32
f 254/103/28 256/86/28 255/104/28
f 256/86/29 260/109/29 259/106/29
f 260/104/27 258/105/27 257/103/27
f 258/107/30 254/110/30 253/88/30
f 259/108/32 257/106/32 253/104/32
f 256/104/31 254/88/31 258/108/31
f 264/97/29 268/95/29 267/101/29
f 266/101/30 262/102/30 261/97/30
f 267/95/32 265/99/32 261/96/32
